STARTFONT 2.1
COMMENT Exported by Fony v1.4.0.2
FONT Untitled
SIZE 48 96 96
FONTBOUNDINGBOX 31 47 0 -39
STARTPROPERTIES 6
COPYRIGHT "Created with Fony 1.4.0.2"
RESOLUTION_X 96
RESOLUTION_Y 96
FONT_ASCENT 9
FONT_DESCENT 39
DEFAULT_CHAR 0
ENDPROPERTIES
CHARS 256
STARTCHAR 000
ENCODING 0
SWIDTH 2232 0
DWIDTH 31 0
BBX 0 0 0 0
BITMAP
ENDCHAR
STARTCHAR 001
ENCODING 1
SWIDTH 2232 0
DWIDTH 31 0
BBX 0 0 0 0
BITMAP
ENDCHAR
STARTCHAR 002
ENCODING 2
SWIDTH 2232 0
DWIDTH 31 0
BBX 0 0 0 0
BITMAP
ENDCHAR
STARTCHAR 003
ENCODING 3
SWIDTH 2232 0
DWIDTH 31 0
BBX 0 0 0 0
BITMAP
ENDCHAR
STARTCHAR 004
ENCODING 4
SWIDTH 2232 0
DWIDTH 31 0
BBX 0 0 0 0
BITMAP
ENDCHAR
STARTCHAR 005
ENCODING 5
SWIDTH 2232 0
DWIDTH 31 0
BBX 0 0 0 0
BITMAP
ENDCHAR
STARTCHAR 006
ENCODING 6
SWIDTH 2232 0
DWIDTH 31 0
BBX 0 0 0 0
BITMAP
ENDCHAR
STARTCHAR 007
ENCODING 7
SWIDTH 2232 0
DWIDTH 31 0
BBX 0 0 0 0
BITMAP
ENDCHAR
STARTCHAR 008
ENCODING 8
SWIDTH 2232 0
DWIDTH 31 0
BBX 0 0 0 0
BITMAP
ENDCHAR
STARTCHAR 009
ENCODING 9
SWIDTH 2232 0
DWIDTH 31 0
BBX 0 0 0 0
BITMAP
ENDCHAR
STARTCHAR 010
ENCODING 10
SWIDTH 2232 0
DWIDTH 31 0
BBX 0 0 0 0
BITMAP
ENDCHAR
STARTCHAR 011
ENCODING 11
SWIDTH 2232 0
DWIDTH 31 0
BBX 0 0 0 0
BITMAP
ENDCHAR
STARTCHAR 012
ENCODING 12
SWIDTH 2232 0
DWIDTH 31 0
BBX 0 0 0 0
BITMAP
ENDCHAR
STARTCHAR 013
ENCODING 13
SWIDTH 2232 0
DWIDTH 31 0
BBX 0 0 0 0
BITMAP
ENDCHAR
STARTCHAR 014
ENCODING 14
SWIDTH 2232 0
DWIDTH 31 0
BBX 0 0 0 0
BITMAP
ENDCHAR
STARTCHAR 015
ENCODING 15
SWIDTH 2232 0
DWIDTH 31 0
BBX 0 0 0 0
BITMAP
ENDCHAR
STARTCHAR 016
ENCODING 16
SWIDTH 2232 0
DWIDTH 31 0
BBX 0 0 0 0
BITMAP
ENDCHAR
STARTCHAR 017
ENCODING 17
SWIDTH 2232 0
DWIDTH 31 0
BBX 0 0 0 0
BITMAP
ENDCHAR
STARTCHAR 018
ENCODING 18
SWIDTH 2232 0
DWIDTH 31 0
BBX 0 0 0 0
BITMAP
ENDCHAR
STARTCHAR 019
ENCODING 19
SWIDTH 2232 0
DWIDTH 31 0
BBX 0 0 0 0
BITMAP
ENDCHAR
STARTCHAR 020
ENCODING 20
SWIDTH 2232 0
DWIDTH 31 0
BBX 0 0 0 0
BITMAP
ENDCHAR
STARTCHAR 021
ENCODING 21
SWIDTH 2232 0
DWIDTH 31 0
BBX 0 0 0 0
BITMAP
ENDCHAR
STARTCHAR 022
ENCODING 22
SWIDTH 2232 0
DWIDTH 31 0
BBX 0 0 0 0
BITMAP
ENDCHAR
STARTCHAR 023
ENCODING 23
SWIDTH 2232 0
DWIDTH 31 0
BBX 0 0 0 0
BITMAP
ENDCHAR
STARTCHAR 024
ENCODING 24
SWIDTH 2232 0
DWIDTH 31 0
BBX 0 0 0 0
BITMAP
ENDCHAR
STARTCHAR 025
ENCODING 25
SWIDTH 2232 0
DWIDTH 31 0
BBX 0 0 0 0
BITMAP
ENDCHAR
STARTCHAR 026
ENCODING 26
SWIDTH 2232 0
DWIDTH 31 0
BBX 0 0 0 0
BITMAP
ENDCHAR
STARTCHAR 027
ENCODING 27
SWIDTH 2232 0
DWIDTH 31 0
BBX 0 0 0 0
BITMAP
ENDCHAR
STARTCHAR 028
ENCODING 28
SWIDTH 2232 0
DWIDTH 31 0
BBX 0 0 0 0
BITMAP
ENDCHAR
STARTCHAR 029
ENCODING 29
SWIDTH 2232 0
DWIDTH 31 0
BBX 0 0 0 0
BITMAP
ENDCHAR
STARTCHAR 030
ENCODING 30
SWIDTH 2232 0
DWIDTH 31 0
BBX 0 0 0 0
BITMAP
ENDCHAR
STARTCHAR 031
ENCODING 31
SWIDTH 2232 0
DWIDTH 31 0
BBX 0 0 0 0
BITMAP
ENDCHAR
STARTCHAR 032
ENCODING 32
SWIDTH 2232 0
DWIDTH 31 0
BBX 0 0 0 0
BITMAP
ENDCHAR
STARTCHAR 033
ENCODING 33
SWIDTH 2232 0
DWIDTH 31 0
BBX 0 0 0 0
BITMAP
ENDCHAR
STARTCHAR 034
ENCODING 34
SWIDTH 2232 0
DWIDTH 31 0
BBX 0 0 0 0
BITMAP
ENDCHAR
STARTCHAR 035
ENCODING 35
SWIDTH 2232 0
DWIDTH 31 0
BBX 0 0 0 0
BITMAP
ENDCHAR
STARTCHAR 036
ENCODING 36
SWIDTH 2232 0
DWIDTH 31 0
BBX 0 0 0 0
BITMAP
ENDCHAR
STARTCHAR 037
ENCODING 37
SWIDTH 2232 0
DWIDTH 31 0
BBX 0 0 0 0
BITMAP
ENDCHAR
STARTCHAR 038
ENCODING 38
SWIDTH 2232 0
DWIDTH 31 0
BBX 0 0 0 0
BITMAP
ENDCHAR
STARTCHAR 039
ENCODING 39
SWIDTH 2232 0
DWIDTH 31 0
BBX 0 0 0 0
BITMAP
ENDCHAR
STARTCHAR 040
ENCODING 40
SWIDTH 2232 0
DWIDTH 31 0
BBX 0 0 0 0
BITMAP
ENDCHAR
STARTCHAR 041
ENCODING 41
SWIDTH 2232 0
DWIDTH 31 0
BBX 0 0 0 0
BITMAP
ENDCHAR
STARTCHAR 042
ENCODING 42
SWIDTH 2232 0
DWIDTH 31 0
BBX 0 0 0 0
BITMAP
ENDCHAR
STARTCHAR 043
ENCODING 43
SWIDTH 2232 0
DWIDTH 31 0
BBX 0 0 0 0
BITMAP
ENDCHAR
STARTCHAR 044
ENCODING 44
SWIDTH 2232 0
DWIDTH 31 0
BBX 0 0 0 0
BITMAP
ENDCHAR
STARTCHAR 045
ENCODING 45
SWIDTH 2232 0
DWIDTH 31 0
BBX 0 0 0 0
BITMAP
ENDCHAR
STARTCHAR 046
ENCODING 46
SWIDTH 2232 0
DWIDTH 31 0
BBX 0 0 0 0
BITMAP
ENDCHAR
STARTCHAR 047
ENCODING 47
SWIDTH 2232 0
DWIDTH 31 0
BBX 0 0 0 0
BITMAP
ENDCHAR
STARTCHAR 048
ENCODING 48
SWIDTH 2232 0
DWIDTH 31 0
BBX 0 0 0 0
BITMAP
ENDCHAR
STARTCHAR 049
ENCODING 49
SWIDTH 2232 0
DWIDTH 31 0
BBX 0 0 0 0
BITMAP
ENDCHAR
STARTCHAR 050
ENCODING 50
SWIDTH 2232 0
DWIDTH 31 0
BBX 0 0 0 0
BITMAP
ENDCHAR
STARTCHAR 051
ENCODING 51
SWIDTH 2232 0
DWIDTH 31 0
BBX 0 0 0 0
BITMAP
ENDCHAR
STARTCHAR 052
ENCODING 52
SWIDTH 2232 0
DWIDTH 31 0
BBX 0 0 0 0
BITMAP
ENDCHAR
STARTCHAR 053
ENCODING 53
SWIDTH 2232 0
DWIDTH 31 0
BBX 0 0 0 0
BITMAP
ENDCHAR
STARTCHAR 054
ENCODING 54
SWIDTH 2232 0
DWIDTH 31 0
BBX 0 0 0 0
BITMAP
ENDCHAR
STARTCHAR 055
ENCODING 55
SWIDTH 2232 0
DWIDTH 31 0
BBX 0 0 0 0
BITMAP
ENDCHAR
STARTCHAR 056
ENCODING 56
SWIDTH 2232 0
DWIDTH 31 0
BBX 0 0 0 0
BITMAP
ENDCHAR
STARTCHAR 057
ENCODING 57
SWIDTH 2232 0
DWIDTH 31 0
BBX 0 0 0 0
BITMAP
ENDCHAR
STARTCHAR 058
ENCODING 58
SWIDTH 2232 0
DWIDTH 31 0
BBX 0 0 0 0
BITMAP
ENDCHAR
STARTCHAR 059
ENCODING 59
SWIDTH 2232 0
DWIDTH 31 0
BBX 0 0 0 0
BITMAP
ENDCHAR
STARTCHAR 060
ENCODING 60
SWIDTH 2232 0
DWIDTH 31 0
BBX 0 0 0 0
BITMAP
ENDCHAR
STARTCHAR 061
ENCODING 61
SWIDTH 2232 0
DWIDTH 31 0
BBX 0 0 0 0
BITMAP
ENDCHAR
STARTCHAR 062
ENCODING 62
SWIDTH 2232 0
DWIDTH 31 0
BBX 0 0 0 0
BITMAP
ENDCHAR
STARTCHAR 063
ENCODING 63
SWIDTH 2232 0
DWIDTH 31 0
BBX 0 0 0 0
BITMAP
ENDCHAR
STARTCHAR 064
ENCODING 64
SWIDTH 2232 0
DWIDTH 31 0
BBX 0 0 0 0
BITMAP
ENDCHAR
STARTCHAR 065
ENCODING 65
SWIDTH 2232 0
DWIDTH 31 0
BBX 6 2 24 -39
BITMAP
FC
FC
ENDCHAR
STARTCHAR 066
ENCODING 66
SWIDTH 2232 0
DWIDTH 31 0
BBX 13 2 17 -39
BITMAP
FFF8
FFF8
ENDCHAR
STARTCHAR 067
ENCODING 67
SWIDTH 2232 0
DWIDTH 31 0
BBX 20 2 10 -39
BITMAP
FFFFF0
FFFFF0
ENDCHAR
STARTCHAR 068
ENCODING 68
SWIDTH 2232 0
DWIDTH 31 0
BBX 27 2 3 -39
BITMAP
FFFFFFE0
FFFFFFE0
ENDCHAR
STARTCHAR 069
ENCODING 69
SWIDTH 2232 0
DWIDTH 31 0
BBX 29 7 1 -39
BITMAP
C0000000
C0000000
C0000000
C0000000
C0000000
FFFFFFF8
FFFFFFF8
ENDCHAR
STARTCHAR 070
ENCODING 70
SWIDTH 2232 0
DWIDTH 31 0
BBX 29 15 1 -39
BITMAP
C0000000
C0000000
C0000000
C0000000
C0000000
C0000000
C0000000
C0000000
C0000000
C0000000
C0000000
C0000000
C0000000
FFFFFFF8
FFFFFFF8
ENDCHAR
STARTCHAR 071
ENCODING 71
SWIDTH 2232 0
DWIDTH 31 0
BBX 29 22 1 -39
BITMAP
C0000000
C0000000
C0000000
C0000000
C0000000
C0000000
C0000000
C0000000
C0000000
C0000000
C0000000
C0000000
C0000000
C0000000
C0000000
C0000000
C0000000
C0000000
C0000000
C0000000
FFFFFFF8
FFFFFFF8
ENDCHAR
STARTCHAR 072
ENCODING 72
SWIDTH 2232 0
DWIDTH 31 0
BBX 29 30 1 -39
BITMAP
C0000000
C0000000
C0000000
C0000000
C0000000
C0000000
C0000000
C0000000
C0000000
C0000000
C0000000
C0000000
C0000000
C0000000
C0000000
C0000000
C0000000
C0000000
C0000000
C0000000
C0000000
C0000000
C0000000
C0000000
C0000000
C0000000
C0000000
C0000000
FFFFFFF8
FFFFFFF8
ENDCHAR
STARTCHAR 073
ENCODING 73
SWIDTH 2232 0
DWIDTH 31 0
BBX 29 34 1 -39
BITMAP
18000000
30000000
60000000
C0000000
C0000000
C0000000
C0000000
C0000000
C0000000
C0000000
C0000000
C0000000
C0000000
C0000000
C0000000
C0000000
C0000000
C0000000
C0000000
C0000000
C0000000
C0000000
C0000000
C0000000
C0000000
C0000000
C0000000
C0000000
C0000000
C0000000
C0000000
C0000000
FFFFFFF8
FFFFFFF8
ENDCHAR
STARTCHAR 074
ENCODING 74
SWIDTH 2232 0
DWIDTH 31 0
BBX 29 39 1 -39
BITMAP
00C00000
01800000
03000000
06000000
0C000000
18000000
30000000
60000000
C0000000
C0000000
C0000000
C0000000
C0000000
C0000000
C0000000
C0000000
C0000000
C0000000
C0000000
C0000000
C0000000
C0000000
C0000000
C0000000
C0000000
C0000000
C0000000
C0000000
C0000000
C0000000
C0000000
C0000000
C0000000
C0000000
C0000000
C0000000
C0000000
FFFFFFF8
FFFFFFF8
ENDCHAR
STARTCHAR 075
ENCODING 75
SWIDTH 2232 0
DWIDTH 31 0
BBX 29 44 1 -39
BITMAP
00060000
000C0000
00180000
00300000
00600000
00C00000
01800000
03000000
06000000
0C000000
18000000
30000000
60000000
C0000000
C0000000
C0000000
C0000000
C0000000
C0000000
C0000000
C0000000
C0000000
C0000000
C0000000
C0000000
C0000000
C0000000
C0000000
C0000000
C0000000
C0000000
C0000000
C0000000
C0000000
C0000000
C0000000
C0000000
C0000000
C0000000
C0000000
C0000000
C0000000
FFFFFFF8
FFFFFFF8
ENDCHAR
STARTCHAR 076
ENCODING 76
SWIDTH 2232 0
DWIDTH 31 0
BBX 29 45 1 -39
BITMAP
00020000
00070000
000D8000
0018C000
00306000
00603000
00C00000
01800000
03000000
06000000
0C000000
18000000
30000000
60000000
C0000000
C0000000
C0000000
C0000000
C0000000
C0000000
C0000000
C0000000
C0000000
C0000000
C0000000
C0000000
C0000000
C0000000
C0000000
C0000000
C0000000
C0000000
C0000000
C0000000
C0000000
C0000000
C0000000
C0000000
C0000000
C0000000
C0000000
C0000000
C0000000
FFFFFFF8
FFFFFFF8
ENDCHAR
STARTCHAR 077
ENCODING 77
SWIDTH 2232 0
DWIDTH 31 0
BBX 29 45 1 -39
BITMAP
00020000
00070000
000D8000
0018C000
00306000
00603000
00C01800
01800C00
03000600
06000300
0C000180
18000000
30000000
60000000
C0000000
C0000000
C0000000
C0000000
C0000000
C0000000
C0000000
C0000000
C0000000
C0000000
C0000000
C0000000
C0000000
C0000000
C0000000
C0000000
C0000000
C0000000
C0000000
C0000000
C0000000
C0000000
C0000000
C0000000
C0000000
C0000000
C0000000
C0000000
C0000000
FFFFFFF8
FFFFFFF8
ENDCHAR
STARTCHAR 078
ENCODING 78
SWIDTH 2232 0
DWIDTH 31 0
BBX 29 45 1 -39
BITMAP
00020000
00070000
000D8000
0018C000
00306000
00603000
00C01800
01800C00
03000600
06000300
0C000180
180000C0
30000060
60000030
C0000018
C0000018
C0000000
C0000000
C0000000
C0000000
C0000000
C0000000
C0000000
C0000000
C0000000
C0000000
C0000000
C0000000
C0000000
C0000000
C0000000
C0000000
C0000000
C0000000
C0000000
C0000000
C0000000
C0000000
C0000000
C0000000
C0000000
C0000000
C0000000
FFFFFFF8
FFFFFFF8
ENDCHAR
STARTCHAR 079
ENCODING 79
SWIDTH 2232 0
DWIDTH 31 0
BBX 29 45 1 -39
BITMAP
00020000
00070000
000D8000
0018C000
00306000
00603000
00C01800
01800C00
03000600
06000300
0C000180
180000C0
30000060
60000030
C0000018
C0000018
C001FFF8
C001FFF8
C0000000
C0000000
C0000000
C0000000
C0000000
C0000000
C0000000
C0000000
C0000000
C0000000
C0000000
C0000000
C0000000
C0000000
C0000000
C0000000
C0000000
C0000000
C0000000
C0000000
C0000000
C0000000
C0000000
C0000000
C0000000
FFFFFFF8
FFFFFFF8
ENDCHAR
STARTCHAR 080
ENCODING 80
SWIDTH 2232 0
DWIDTH 31 0
BBX 29 45 1 -39
BITMAP
00020000
00070000
000D8000
0018C000
00306000
00603000
00C01800
01800C00
03000600
06000300
0C000180
180000C0
30000060
60000030
C0000018
C0000018
C0FFFFF8
C0FFFFF8
C0000000
C0000000
C0000000
C0000000
C0000000
C0000000
C0000000
C0000000
C0000000
C0000000
C0000000
C0000000
C0000000
C0000000
C0000000
C0000000
C0000000
C0000000
C0000000
C0000000
C0000000
C0000000
C0000000
C0000000
C0000000
FFFFFFF8
FFFFFFF8
ENDCHAR
STARTCHAR 081
ENCODING 81
SWIDTH 2232 0
DWIDTH 31 0
BBX 29 45 1 -39
BITMAP
00020000
00070000
000D8000
0018C000
00306000
00603000
00C01800
01800C00
03000600
06000300
0C000180
180000C0
30000060
60000030
C0000018
C0000018
FFFFFFF8
FFFFFFF8
C0000000
C0000000
C0000000
C0000000
C0000000
C0000000
C0000000
C0000000
C0000000
C0000000
C0000000
C0000000
C0000000
C0000000
C0000000
C0000000
C0000000
C0000000
C0000000
C0000000
C0000000
C0000000
C0000000
C0000000
C0000000
FFFFFFF8
FFFFFFF8
ENDCHAR
STARTCHAR 082
ENCODING 82
SWIDTH 2232 0
DWIDTH 31 0
BBX 29 45 1 -39
BITMAP
00020000
00070000
000D8000
0018C000
00306000
00603000
00C01800
01800C00
03000600
06000300
0C000180
180000C0
30000060
60000030
C0000018
C0000018
FFFFFFF8
FFFFFFF8
E0000000
D0000000
C8000000
C0000000
C0000000
C0000000
C0000000
C0000000
C0000000
C0000000
C0000000
C0000000
C0000000
C0000000
C0000000
C0000000
C0000000
C0000000
C0000000
C0000000
C0000000
C0000000
C0000000
C0000000
C0000000
FFFFFFF8
FFFFFFF8
ENDCHAR
STARTCHAR 083
ENCODING 83
SWIDTH 2232 0
DWIDTH 31 0
BBX 29 45 1 -39
BITMAP
00020000
00070000
000D8000
0018C000
00306000
00603000
00C01800
01800C00
03000600
06000300
0C000180
180000C0
30000060
60000030
C0000018
C0000018
FFFFFFF8
FFFFFFF8
E0000000
D0000000
C8000000
C4000000
C2000000
C1000000
C0800000
C0000000
C0000000
C0000000
C0000000
C0000000
C0000000
C0000000
C0000000
C0000000
C0000000
C0000000
C0000000
C0000000
C0000000
C0000000
C0000000
C0000000
C0000000
FFFFFFF8
FFFFFFF8
ENDCHAR
STARTCHAR 084
ENCODING 84
SWIDTH 2232 0
DWIDTH 31 0
BBX 29 45 1 -39
BITMAP
00020000
00070000
000D8000
0018C000
00306000
00603000
00C01800
01800C00
03000600
06000300
0C000180
180000C0
30000060
60000030
C0000018
C0000018
FFFFFFF8
FFFFFFF8
E0000000
D0000000
C8000000
C4000000
C2000000
C1000000
C0800000
C0400000
C0200000
C0100000
C0080000
C0040000
C0000000
C0000000
C0000000
C0000000
C0000000
C0000000
C0000000
C0000000
C0000000
C0000000
C0000000
C0000000
C0000000
FFFFFFF8
FFFFFFF8
ENDCHAR
STARTCHAR 085
ENCODING 85
SWIDTH 2232 0
DWIDTH 31 0
BBX 29 45 1 -39
BITMAP
00020000
00070000
000D8000
0018C000
00306000
00603000
00C01800
01800C00
03000600
06000300
0C000180
180000C0
30000060
60000030
C0000018
C0000018
FFFFFFF8
FFFFFFF8
E0000000
D0000000
C8000000
C4000000
C2000000
C1000000
C0800000
C0400000
C0200000
C0100000
C0080000
C0040000
C0020000
C0010000
C0008000
C0004000
C0002000
C0000000
C0000000
C0000000
C0000000
C0000000
C0000000
C0000000
C0000000
FFFFFFF8
FFFFFFF8
ENDCHAR
STARTCHAR 086
ENCODING 86
SWIDTH 2232 0
DWIDTH 31 0
BBX 29 45 1 -39
BITMAP
00020000
00070000
000D8000
0018C000
00306000
00603000
00C01800
01800C00
03000600
06000300
0C000180
180000C0
30000060
60000030
C0000018
C0000018
FFFFFFF8
FFFFFFF8
E0000000
D0000000
C8000000
C4000000
C2000000
C1000000
C0800000
C0400000
C0200000
C0100000
C0080000
C0040000
C0020000
C0010000
C0008000
C0004000
C0002000
C0001000
C0000800
C0000400
C0000200
C0000000
C0000000
C0000000
C0000000
FFFFFFF8
FFFFFFF8
ENDCHAR
STARTCHAR 087
ENCODING 87
SWIDTH 2232 0
DWIDTH 31 0
BBX 29 45 1 -39
BITMAP
00020000
00070000
000D8000
0018C000
00306000
00603000
00C01800
01800C00
03000600
06000300
0C000180
180000C0
30000060
60000030
C0000018
C0000018
FFFFFFF8
FFFFFFF8
E0000000
D0000000
C8000000
C4000000
C2000000
C1000000
C0800000
C0400000
C0200000
C0100000
C0080000
C0040000
C0020000
C0010000
C0008000
C0004000
C0002000
C0001000
C0000800
C0000400
C0000200
C0000100
C0000080
C0000040
C0000020
FFFFFFF8
FFFFFFF8
ENDCHAR
STARTCHAR 088
ENCODING 88
SWIDTH 2232 0
DWIDTH 31 0
BBX 29 45 1 -39
BITMAP
00020000
00070000
000D8000
0018C000
00306000
00603000
00C01800
01800C00
03000600
06000300
0C000180
180000C0
30000060
60000030
C0000018
C0000018
FFFFFFF8
FFFFFFF8
E0000000
D0000000
C8000000
C4000000
C2000000
C1000000
C0800000
C0400000
C0200000
C0100000
C0080000
C0040000
C0020000
C0010000
C0008000
C0004000
C0002000
C0001000
C0000818
C0000418
C0000218
C0000118
C0000098
C0000058
C0000038
FFFFFFF8
FFFFFFF8
ENDCHAR
STARTCHAR 089
ENCODING 89
SWIDTH 2232 0
DWIDTH 31 0
BBX 29 45 1 -39
BITMAP
00020000
00070000
000D8000
0018C000
00306000
00603000
00C01800
01800C00
03000600
06000300
0C000180
180000C0
30000060
60000030
C0000018
C0000018
FFFFFFF8
FFFFFFF8
E0000000
D0000000
C8000000
C4000000
C2000000
C1000000
C0800000
C0400000
C0200000
C0100000
C0080000
C0040000
C0020018
C0010018
C0008018
C0004018
C0002018
C0001018
C0000818
C0000418
C0000218
C0000118
C0000098
C0000058
C0000038
FFFFFFF8
FFFFFFF8
ENDCHAR
STARTCHAR 090
ENCODING 90
SWIDTH 2232 0
DWIDTH 31 0
BBX 29 45 1 -39
BITMAP
00020000
00070000
000D8000
0018C000
00306000
00603000
00C01800
01800C00
03000600
06000300
0C000180
180000C0
30000060
60000030
C0000018
C0000018
FFFFFFF8
FFFFFFF8
E0000000
D0000000
C8000000
C4000000
C2000000
C1000000
C0800018
C0400018
C0200018
C0100018
C0080018
C0040018
C0020018
C0010018
C0008018
C0004018
C0002018
C0001018
C0000818
C0000418
C0000218
C0000118
C0000098
C0000058
C0000038
FFFFFFF8
FFFFFFF8
ENDCHAR
STARTCHAR 091
ENCODING 91
SWIDTH 2232 0
DWIDTH 31 0
BBX 29 45 1 -39
BITMAP
00020000
00070000
000D8000
0018C000
00306000
00603000
00C01800
01800C00
03000600
06000300
0C000180
180000C0
30000060
60000030
C0000018
C0000018
FFFFFFF8
FFFFFFF8
E0000018
D0000018
C8000018
C4000018
C2000018
C1000018
C0800018
C0400018
C0200018
C0100018
C0080018
C0040018
C0020018
C0010018
C0008018
C0004018
C0002018
C0001018
C0000818
C0000418
C0000218
C0000118
C0000098
C0000058
C0000038
FFFFFFF8
FFFFFFF8
ENDCHAR
STARTCHAR 092
ENCODING 92
SWIDTH 2232 0
DWIDTH 31 0
BBX 29 45 1 -39
BITMAP
00020000
00070000
000D8000
0018C000
00306000
00603000
00C01800
01800C00
03000600
06000300
0C000180
180000C0
30000060
60000030
C0000018
C0000018
FFFFFFF8
FFFFFFF8
E0000038
D0000058
C8000098
C4000118
C2000018
C1000018
C0800018
C0400018
C0200018
C0100018
C0080018
C0040018
C0020018
C0010018
C0008018
C0004018
C0002018
C0001018
C0000818
C0000418
C0000218
C0000118
C0000098
C0000058
C0000038
FFFFFFF8
FFFFFFF8
ENDCHAR
STARTCHAR 093
ENCODING 93
SWIDTH 2232 0
DWIDTH 31 0
BBX 29 45 1 -39
BITMAP
00020000
00070000
000D8000
0018C000
00306000
00603000
00C01800
01800C00
03000600
06000300
0C000180
180000C0
30000060
60000030
C0000018
C0000018
FFFFFFF8
FFFFFFF8
E0000038
D0000058
C8000098
C4000118
C2000218
C1000418
C0800818
C0401018
C0200018
C0100018
C0080018
C0040018
C0020018
C0010018
C0008018
C0004018
C0002018
C0001018
C0000818
C0000418
C0000218
C0000118
C0000098
C0000058
C0000038
FFFFFFF8
FFFFFFF8
ENDCHAR
STARTCHAR 094
ENCODING 94
SWIDTH 2232 0
DWIDTH 31 0
BBX 29 45 1 -39
BITMAP
00020000
00070000
000D8000
0018C000
00306000
00603000
00C01800
01800C00
03000600
06000300
0C000180
180000C0
30000060
60000030
C0000018
C0000018
FFFFFFF8
FFFFFFF8
E0000038
D0000058
C8000098
C4000118
C2000218
C1000418
C0800818
C0401018
C0202018
C0104018
C0088018
C0050018
C0020018
C0010018
C0008018
C0004018
C0002018
C0001018
C0000818
C0000418
C0000218
C0000118
C0000098
C0000058
C0000038
FFFFFFF8
FFFFFFF8
ENDCHAR
STARTCHAR 095
ENCODING 95
SWIDTH 2232 0
DWIDTH 31 0
BBX 29 45 1 -39
BITMAP
00020000
00070000
000D8000
0018C000
00306000
00603000
00C01800
01800C00
03000600
06000300
0C000180
180000C0
30000060
60000030
C0000018
C0000018
FFFFFFF8
FFFFFFF8
E0000038
D0000058
C8000098
C4000118
C2000218
C1000418
C0800818
C0401018
C0202018
C0104018
C0088018
C0050018
C0020018
C0050018
C0088018
C0104018
C0202018
C0001018
C0000818
C0000418
C0000218
C0000118
C0000098
C0000058
C0000038
FFFFFFF8
FFFFFFF8
ENDCHAR
STARTCHAR 096
ENCODING 96
SWIDTH 2232 0
DWIDTH 31 0
BBX 29 45 1 -39
BITMAP
00020000
00070000
000D8000
0018C000
00306000
00603000
00C01800
01800C00
03000600
06000300
0C000180
180000C0
30000060
60000030
C0000018
C0000018
FFFFFFF8
FFFFFFF8
E0000038
D0000058
C8000098
C4000118
C2000218
C1000418
C0800818
C0401018
C0202018
C0104018
C0088018
C0050018
C0020018
C0050018
C0088018
C0104018
C0202018
C0401018
C0800818
C1000418
C2000218
C0000118
C0000098
C0000058
C0000038
FFFFFFF8
FFFFFFF8
ENDCHAR
STARTCHAR 097
ENCODING 97
SWIDTH 2232 0
DWIDTH 31 0
BBX 29 45 1 -39
BITMAP
00020000
00070000
000D8000
0018C000
00306000
00603000
00C01800
01800C00
03000600
06000300
0C000180
180000C0
30000060
60000030
C0000018
C0000018
FFFFFFF8
FFFFFFF8
E0000038
D0000058
C8000098
C4000118
C2000218
C1000418
C0800818
C0401018
C0202018
C0104018
C0088018
C0050018
C0020018
C0050018
C0088018
C0104018
C0202018
C0401018
C0800818
C1000418
C2000218
C4000118
C8000098
D0000058
E0000038
FFFFFFF8
FFFFFFF8
ENDCHAR
STARTCHAR 098
ENCODING 98
SWIDTH 2232 0
DWIDTH 31 0
BBX 30 48 0 -39
BITMAP
C0000000
C0000000
C0000000
C0010000
C0038000
C006C000
C00C6000
C0183000
00301800
00600C00
00C00600
01800300
03000180
060000C0
0C000060
18000030
30000018
6000000C
6000000C
7FFFFFFC
7FFFFFFC
7000001C
6800002C
6400004C
6200008C
6100010C
6080020C
6040040C
6020080C
6010100C
6008200C
6004400C
6002800C
6001000C
6002800C
6004400C
6008200C
6010100C
6020080C
6040040C
6080020C
6100010C
6200008C
6400004C
6800002C
7000001C
7FFFFFFC
7FFFFFFC
ENDCHAR
STARTCHAR 099
ENCODING 99
SWIDTH 2232 0
DWIDTH 31 0
BBX 30 48 0 -39
BITMAP
E2000000
F6000000
DC000000
DC010000
C8038000
C006C000
C00C6000
C0183000
00301800
00600C00
00C00600
01800300
03000180
060000C0
0C000060
18000030
30000018
6000000C
6000000C
7FFFFFFC
7FFFFFFC
7000001C
6800002C
6400004C
6200008C
6100010C
6080020C
6040040C
6020080C
6010100C
6008200C
6004400C
6002800C
6001000C
6002800C
6004400C
6008200C
6010100C
6020080C
6040040C
6080020C
6100010C
6200008C
6400004C
6800002C
7000001C
7FFFFFFC
7FFFFFFC
ENDCHAR
STARTCHAR 100
ENCODING 100
SWIDTH 2232 0
DWIDTH 31 0
BBX 30 48 0 -39
BITMAP
E3800000
F7800000
DD800000
DD810000
C9838000
C186C000
C18C6000
C1983000
00301800
00600C00
00C00600
01800300
03000180
060000C0
0C000060
18000030
30000018
6000000C
6000000C
7FFFFFFC
7FFFFFFC
7000001C
6800002C
6400004C
6200008C
6100010C
6080020C
6040040C
6020080C
6010100C
6008200C
6004400C
6002800C
6001000C
6002800C
6004400C
6008200C
6010100C
6020080C
6040040C
6080020C
6100010C
6200008C
6400004C
6800002C
7000001C
7FFFFFFC
7FFFFFFC
ENDCHAR
STARTCHAR 101
ENCODING 101
SWIDTH 2232 0
DWIDTH 31 0
BBX 30 48 0 -39
BITMAP
E3800000
F7800000
DD800000
DD810000
C9838000
C186C000
C18C6000
C1983000
00301800
00630C00
00C30600
01830300
03030180
060300C0
0C030060
18000030
30000018
6000000C
6000000C
7FFFFFFC
7FFFFFFC
7000001C
6800002C
6400004C
6200008C
6100010C
6080020C
6040040C
6020080C
6010100C
6008200C
6004400C
6002800C
6001000C
6002800C
6004400C
6008200C
6010100C
6020080C
6040040C
6080020C
6100010C
6200008C
6400004C
6800002C
7000001C
7FFFFFFC
7FFFFFFC
ENDCHAR
STARTCHAR 102
ENCODING 102
SWIDTH 2232 0
DWIDTH 31 0
BBX 30 48 0 -39
BITMAP
E3800000
F7800000
DD800000
DD810000
C9838000
C186C000
C18C6000
C1983000
00301800
00630C00
00C30600
01830300
03030180
060300C0
0C030060
1803F030
3003F018
6000000C
6000000C
7FFFFFFC
7FFFFFFC
7000001C
6800002C
6400004C
6200008C
6100010C
6080020C
6040040C
6020080C
6010100C
6008200C
6004400C
6002800C
6001000C
6002800C
6004400C
6008200C
6010100C
6020080C
6040040C
6080020C
6100010C
6200008C
6400004C
6800002C
7000001C
7FFFFFFC
7FFFFFFC
ENDCHAR
STARTCHAR 103
ENCODING 103
SWIDTH 2232 0
DWIDTH 31 0
BBX 30 48 0 -39
BITMAP
E38000C0
F78000C0
DD8000C0
DD8100C0
C98380C0
C186C0C0
C18C6000
C1983000
00301800
00630C00
00C30600
01830300
03030180
060300C0
0C030060
1803F030
3003F018
6000000C
6000000C
7FFFFFFC
7FFFFFFC
7000001C
6800002C
6400004C
6200008C
6100010C
6080020C
6040040C
6020080C
6010100C
6008200C
6004400C
6002800C
6001000C
6002800C
6004400C
6008200C
6010100C
6020080C
6040040C
6080020C
6100010C
6200008C
6400004C
6800002C
7000001C
7FFFFFFC
7FFFFFFC
ENDCHAR
STARTCHAR 104
ENCODING 104
SWIDTH 2232 0
DWIDTH 31 0
BBX 30 48 0 -39
BITMAP
E38000C0
F78000C0
DD8000C0
DD8100C0
C98380C0
C186C0C0
C18C60FC
C19830FC
00301800
00630C00
00C30600
01830300
03030180
060300C0
0C030060
1803F030
3003F018
6000000C
6000000C
7FFFFFFC
7FFFFFFC
7000001C
6800002C
6400004C
6200008C
6100010C
6080020C
6040040C
6020080C
6010100C
6008200C
6004400C
6002800C
6001000C
6002800C
6004400C
6008200C
6010100C
6020080C
6040040C
6080020C
6100010C
6200008C
6400004C
6800002C
7000001C
7FFFFFFC
7FFFFFFC
ENDCHAR
STARTCHAR 105
ENCODING 105
SWIDTH 2232 0
DWIDTH 31 0
BBX 30 48 0 -39
BITMAP
E38000C0
F78000C0
DD8000C0
DD8100C0
C98380C0
C186C0C0
C18C60FC
C19830FC
00301800
00630C00
00C30600
01830300
03030180
060300C0
0C030060
1803F030
3003F018
6000000C
6000000C
7FFFFFFC
7FFFFFFC
7000001C
6800002C
6400004C
6200008C
6100010C
608FE20C
6050140C
6020080C
6040040C
6080020C
6100010C
6107C10C
6104410C
6104410C
6107C10C
6100010C
6080020C
6040040C
60600C0C
6090120C
610FE10C
6200008C
6400004C
6800002C
7000001C
7FFFFFFC
7FFFFFFC
ENDCHAR
STARTCHAR 106
ENCODING 106
SWIDTH 2232 0
DWIDTH 31 0
BBX 30 46 0 -39
BITMAP
E38000C0
F78100C0
DD8380C0
C986C0C0
C18C60C0
C19830C0
C1B018FC
C1E30CFC
01C30600
01830300
03030180
060300C0
0C030060
1803F030
3003F018
6000000C
6000000C
7FFFFFFC
7FFFFFFC
7000001C
6800002C
6400004C
6200008C
6100010C
608FE20C
6050140C
6021080C
6041040C
6081020C
6100010C
6107C10C
61745D0C
6104410C
6107C10C
6100010C
6081020C
6041040C
60610C0C
6090120C
610FE10C
6200008C
6400004C
6800002C
7000001C
7FFFFFFC
7FFFFFFC
ENDCHAR
STARTCHAR 107
ENCODING 107
SWIDTH 2232 0
DWIDTH 31 0
BBX 30 48 0 -39
BITMAP
000000C0
000000C0
E38000C0
F78100C0
DD8380C0
C986C0C0
C18C60FC
C19830FC
C1B01800
C1E00C00
01C30600
01830300
03030180
060300C0
0C030060
18030030
3003F018
6003F00C
6000000C
7FFFFFFC
7FFFFFFC
7001001C
6801002C
6401004C
6201008C
6100010C
608FE20C
6050140C
6020080C
6040040C
608FE20C
610FE10C
610C610C
7D0C617C
610C610C
610C610C
610FE10C
608FE20C
6040040C
60600C0C
6090120C
610FE10C
6200008C
6401004C
6801002C
7001001C
7FFFFFFC
7FFFFFFC
ENDCHAR
STARTCHAR 108
ENCODING 108
SWIDTH 2232 0
DWIDTH 31 0
BBX 30 46 0 -39
BITMAP
E38000C0
F78100C0
DD8380C0
C986C0C0
C18C60C0
C19830C0
C1B018FC
C1E00CFC
01C30600
01830300
03030180
060300C0
0C030060
18030030
3003F018
6003F00C
6000000C
7FFFFFFC
7FFFFFFC
7001001C
6801002C
6401004C
6201008C
6100010C
608FE20C
6050140C
6020080C
6040040C
608FE20C
610FE10C
610C610C
7D0C617C
610C610C
610C610C
610FE10C
608FE20C
6040040C
60600C0C
6090120C
610FE10C
6200008C
6401004C
6801002C
7001001C
7FFFFFFC
7FFFFFFC
ENDCHAR
STARTCHAR 109
ENCODING 109
SWIDTH 2232 0
DWIDTH 31 0
BBX 30 48 0 -39
BITMAP
000000C0
000000C0
E38000C0
F78100C0
DD8380C0
C986C0C0
C18C60FC
C19830FC
C1B01800
C1E00C00
01C30600
01830300
03030180
060300C0
0C030060
18030030
3003F018
6003F00C
6000000C
7FFFFFFC
7FFFFFFC
7000001C
6800002C
6400004C
6200008C
6100010C
608FE20C
6050140C
6021080C
6041040C
6081020C
6100010C
6107C10C
61745D0C
6104410C
6107C10C
6100010C
6081020C
6041040C
60610C0C
6090120C
610FE10C
6200008C
6400004C
6800002C
7000001C
7FFFFFFC
7FFFFFFC
ENDCHAR
STARTCHAR 110
ENCODING 110
SWIDTH 2232 0
DWIDTH 31 0
BBX 30 48 0 -39
BITMAP
E38000C0
F78000C0
DD8000C0
DD8100C0
C98380C0
C186C0C0
C18C60FC
C19830FC
00301800
00600C00
00C30600
01830300
03030180
060300C0
0C030060
18030030
3003F018
6003F00C
6000000C
7FFFFFFC
7FFFFFFC
7000001C
6800002C
6400004C
6200008C
6100010C
608FE20C
6050140C
6020080C
6040040C
6080020C
6100010C
6107C10C
6104410C
6104410C
6107C10C
6100010C
6080020C
6040040C
60600C0C
6090120C
610FE10C
6200008C
6400004C
6800002C
7000001C
7FFFFFFC
7FFFFFFC
ENDCHAR
STARTCHAR 111
ENCODING 111
SWIDTH 2232 0
DWIDTH 31 0
BBX 30 48 0 -39
BITMAP
E38000C0
F78000C0
DD8000C0
DD8100C0
C98380C0
C186C0C0
C18C60FC
C19830FC
00301800
00618C00
00C18600
01818300
03018180
060180C0
0C018060
1801F830
3001F818
6000000C
6000000C
7FFFFFFC
7FFFFFFC
7000001C
6800002C
6400004C
6200008C
6100010C
608FE20C
6050140C
6021080C
6041040C
6081020C
6100010C
6107C10C
61745D0C
6104410C
6107C10C
6100010C
6081020C
6041040C
60610C0C
6090120C
610FE10C
6200008C
6400004C
6800002C
7000001C
7FFFFFFC
7FFFFFFC
ENDCHAR
STARTCHAR 112
ENCODING 112
SWIDTH 2232 0
DWIDTH 31 0
BBX 30 48 0 -39
BITMAP
E38000C0
F78000C0
DD8000C0
DD8100C0
C98380C0
C186C0C0
C18C60FC
C19830FC
00301800
00660C00
00C60600
01860300
03060180
060600C0
0C060060
1807E030
3007E018
6000000C
6000000C
7FFFFFFC
7FFFFFFC
7001001C
6801002C
6401004C
6201008C
6100010C
608FE20C
6050140C
6020080C
6040040C
608FE20C
610FE10C
610C610C
7D0C617C
610C610C
610C610C
610FE10C
608FE20C
6040040C
60600C0C
6090120C
610FE10C
6200008C
6401004C
6801002C
7001001C
7FFFFFFC
7FFFFFFC
ENDCHAR
STARTCHAR 113
ENCODING 113
SWIDTH 2232 0
DWIDTH 31 0
BBX 30 48 0 -39
BITMAP
E38000C0
F78000C0
DD8000C0
DD8100C0
C98380C0
C186C0C0
C18C60FC
C19830FC
00301800
00660C00
00C60600
01860300
03060180
060600C0
0C060060
1807E030
3007E018
6000000C
6000000C
7FFFFFFC
7FFFFFFC
7000001C
6800002C
6400004C
6200008C
6100010C
608FE20C
6050140C
6021080C
6041040C
6081020C
6100010C
6107C10C
61745D0C
6104410C
6107C10C
6100010C
6081020C
6041040C
60610C0C
6090120C
610FE10C
6200008C
6400004C
6800002C
7000001C
7FFFFFFC
7FFFFFFC
ENDCHAR
STARTCHAR 114
ENCODING 114
SWIDTH 2232 0
DWIDTH 31 0
BBX 30 48 0 -39
BITMAP
E38000C0
F78000C0
DD8000C0
DD8100C0
C98380C0
C186C0C0
C18C60FC
C19830FC
00301800
00660C00
00C60600
01860300
03060180
060600C0
0C060060
1807E030
3007E018
6000000C
6000000C
7FFFFFFC
7FFFFFFC
7000001C
6800002C
6400004C
6200008C
6100010C
608FE20C
6050140C
6020080C
6040040C
6080020C
6100010C
6107C10C
6104410C
6104410C
6107C10C
6100010C
6080020C
6040040C
60600C0C
6090120C
610FE10C
6200008C
6400004C
6800002C
7000001C
7FFFFFFC
7FFFFFFC
ENDCHAR
STARTCHAR 115
ENCODING 115
SWIDTH 2232 0
DWIDTH 31 0
BBX 30 48 0 -39
BITMAP
E38000C0
F78000C0
DD8000C0
DD8100C0
C98380C0
C186C0C0
C18C60FC
C19830FC
00301800
00660C00
00C60600
01860300
03060180
060600C0
0C060060
1807E030
3007E018
6000000C
6000000C
7FFFFFFC
7FFFFFFC
7000001C
6800002C
6400004C
6200008C
6100010C
608FE20C
6050140C
6021080C
6041040C
6081020C
6100010C
6107C10C
61745D0C
6104410C
6107C10C
6100010C
6081020C
6041040C
60610C0C
6090120C
610FE10C
6200008C
6400004C
6800002C
7000001C
7FFFFFFC
7FFFFFFC
ENDCHAR
STARTCHAR 116
ENCODING 116
SWIDTH 2232 0
DWIDTH 31 0
BBX 30 48 0 -39
BITMAP
E38000C0
F78000C0
DD8000C0
DD8100C0
C98380C0
C186C0C0
C18C60FC
C19830FC
00301800
00660C00
00C60600
01860300
03060180
060600C0
0C060060
1807E030
3007E018
6000000C
6000000C
7FFFFFFC
7FFFFFFC
7001001C
6801002C
6401004C
6201008C
6100010C
608FE20C
6050140C
6020080C
6040040C
608FE20C
610FE10C
610C610C
7D0C617C
610C610C
610C610C
610FE10C
608FE20C
6040040C
60600C0C
6090120C
610FE10C
6200008C
6401004C
6801002C
7001001C
7FFFFFFC
7FFFFFFC
ENDCHAR
STARTCHAR 117
ENCODING 117
SWIDTH 2232 0
DWIDTH 31 0
BBX 30 48 0 -39
BITMAP
E38000C0
F78000C0
DD8000C0
DD8100C0
C98380C0
C186C0C0
C18C60FC
C19830FC
00301800
00660C00
00C60600
01860300
03060180
060600C0
0C060060
1807E030
3007E018
6000000C
6000000C
7FFFFFFC
7FFFFFFC
7000001C
6800002C
6400004C
6200008C
6100010C
608FE20C
6050140C
6021080C
6041040C
6081020C
6100010C
6107C10C
61745D0C
6104410C
6107C10C
6100010C
6081020C
6041040C
60610C0C
6090120C
610FE10C
6200008C
6400004C
6800002C
7000001C
7FFFFFFC
7FFFFFFC
ENDCHAR
STARTCHAR 118
ENCODING 118
SWIDTH 2232 0
DWIDTH 31 0
BBX 30 48 0 -39
BITMAP
E38000C0
F78000C0
DD8000C0
DD8100C0
C98380C0
C186C0C0
C18C60FC
C19830FC
00301800
00660C00
00C60600
01860300
03060180
060600C0
0C060060
1807E030
3007E018
6000000C
6000000C
7FFFFFFC
7FFFFFFC
7000001C
6800002C
6400004C
6200008C
6100010C
608FE20C
6050140C
6020080C
6040040C
6080020C
6100010C
6107C10C
6104410C
6104410C
6107C10C
6100010C
6080020C
6040040C
60600C0C
6090120C
610FE10C
6200008C
6400004C
6800002C
7000001C
7FFFFFFC
7FFFFFFC
ENDCHAR
STARTCHAR 119
ENCODING 119
SWIDTH 2232 0
DWIDTH 31 0
BBX 30 48 0 -39
BITMAP
E38000C0
F78000C0
DD8000C0
DD8100C0
C98380C0
C186C0C0
C18C60FC
C19830FC
00301800
00660C00
00C60600
01860300
03060180
060600C0
0C060060
1807E030
3007E018
6000000C
6000000C
7FFFFFFC
7FFFFFFC
7000001C
6800002C
6400004C
6200008C
6100010C
608FE20C
6050140C
6021080C
6041040C
6081020C
6100010C
6107C10C
61745D0C
6104410C
6107C10C
6100010C
6081020C
6041040C
60610C0C
6090120C
610FE10C
6200008C
6400004C
6800002C
7000001C
7FFFFFFC
7FFFFFFC
ENDCHAR
STARTCHAR 120
ENCODING 120
SWIDTH 2232 0
DWIDTH 31 0
BBX 30 48 0 -39
BITMAP
E38000C0
F78000C0
DD8000C0
DD8100C0
C98380C0
C186C0C0
C18C60FC
C19830FC
00301800
00660C00
00C60600
01860300
03060180
060600C0
0C060060
1807E030
3007E018
6000000C
6000000C
7FFFFFFC
7FFFFFFC
7001001C
6801002C
6401004C
6201008C
6100010C
608FE20C
6050140C
6020080C
6040040C
608FE20C
610FE10C
610C610C
7D0C617C
610C610C
610C610C
610FE10C
608FE20C
6040040C
60600C0C
6090120C
610FE10C
6200008C
6401004C
6801002C
7001001C
7FFFFFFC
7FFFFFFC
ENDCHAR
STARTCHAR 121
ENCODING 121
SWIDTH 2232 0
DWIDTH 31 0
BBX 30 48 0 -39
BITMAP
E38000C0
F78000C0
DD8000C0
DD8100C0
C98380C0
C186C0C0
C18C60FC
C19830FC
00301800
00660C00
00C60600
01860300
03060180
060600C0
0C060060
1807E030
3007E018
6000000C
6000000C
7FFFFFFC
7FFFFFFC
7000001C
6800002C
6400004C
6200008C
6100010C
608FE20C
6050140C
6021080C
6041040C
6081020C
6100010C
6107C10C
61745D0C
6104410C
6107C10C
6100010C
6081020C
6041040C
60610C0C
6090120C
610FE10C
6200008C
6400004C
6800002C
7000001C
7FFFFFFC
7FFFFFFC
ENDCHAR
STARTCHAR 122
ENCODING 122
SWIDTH 2232 0
DWIDTH 31 0
BBX 30 48 0 -39
BITMAP
E38000C0
F78000C0
DD8000C0
DD8100C0
C98380C0
C186C0C0
C18C60FC
C19830FC
00301800
00660C00
00C60600
01860300
03060180
060600C0
0C060060
1807E030
3007E018
6000000C
6000000C
7FFFFFFC
7FFFFFFC
7000001C
6800002C
6400004C
6200008C
6100010C
608FE20C
6050140C
6020080C
6040040C
6080020C
6100010C
6107C10C
6104410C
6104410C
6107C10C
6100010C
6080020C
6040040C
60600C0C
6090120C
610FE10C
6200008C
6400004C
6800002C
7000001C
7FFFFFFC
7FFFFFFC
ENDCHAR
STARTCHAR 123
ENCODING 123
SWIDTH 2232 0
DWIDTH 31 0
BBX 0 0 0 0
BITMAP
ENDCHAR
STARTCHAR 124
ENCODING 124
SWIDTH 2232 0
DWIDTH 31 0
BBX 0 0 0 0
BITMAP
ENDCHAR
STARTCHAR 125
ENCODING 125
SWIDTH 2232 0
DWIDTH 31 0
BBX 0 0 0 0
BITMAP
ENDCHAR
STARTCHAR 126
ENCODING 126
SWIDTH 2232 0
DWIDTH 31 0
BBX 0 0 0 0
BITMAP
ENDCHAR
STARTCHAR 127
ENCODING 127
SWIDTH 2232 0
DWIDTH 31 0
BBX 0 0 0 0
BITMAP
ENDCHAR
STARTCHAR 128
ENCODING 128
SWIDTH 2232 0
DWIDTH 31 0
BBX 0 0 0 0
BITMAP
ENDCHAR
STARTCHAR 129
ENCODING 129
SWIDTH 2232 0
DWIDTH 31 0
BBX 0 0 0 0
BITMAP
ENDCHAR
STARTCHAR 130
ENCODING 130
SWIDTH 2232 0
DWIDTH 31 0
BBX 0 0 0 0
BITMAP
ENDCHAR
STARTCHAR 131
ENCODING 131
SWIDTH 2232 0
DWIDTH 31 0
BBX 0 0 0 0
BITMAP
ENDCHAR
STARTCHAR 132
ENCODING 132
SWIDTH 2232 0
DWIDTH 31 0
BBX 0 0 0 0
BITMAP
ENDCHAR
STARTCHAR 133
ENCODING 133
SWIDTH 2232 0
DWIDTH 31 0
BBX 0 0 0 0
BITMAP
ENDCHAR
STARTCHAR 134
ENCODING 134
SWIDTH 2232 0
DWIDTH 31 0
BBX 0 0 0 0
BITMAP
ENDCHAR
STARTCHAR 135
ENCODING 135
SWIDTH 2232 0
DWIDTH 31 0
BBX 0 0 0 0
BITMAP
ENDCHAR
STARTCHAR 136
ENCODING 136
SWIDTH 2232 0
DWIDTH 31 0
BBX 0 0 0 0
BITMAP
ENDCHAR
STARTCHAR 137
ENCODING 137
SWIDTH 2232 0
DWIDTH 31 0
BBX 0 0 0 0
BITMAP
ENDCHAR
STARTCHAR 138
ENCODING 138
SWIDTH 2232 0
DWIDTH 31 0
BBX 0 0 0 0
BITMAP
ENDCHAR
STARTCHAR 139
ENCODING 139
SWIDTH 2232 0
DWIDTH 31 0
BBX 0 0 0 0
BITMAP
ENDCHAR
STARTCHAR 140
ENCODING 140
SWIDTH 2232 0
DWIDTH 31 0
BBX 0 0 0 0
BITMAP
ENDCHAR
STARTCHAR 141
ENCODING 141
SWIDTH 2232 0
DWIDTH 31 0
BBX 0 0 0 0
BITMAP
ENDCHAR
STARTCHAR 142
ENCODING 142
SWIDTH 2232 0
DWIDTH 31 0
BBX 0 0 0 0
BITMAP
ENDCHAR
STARTCHAR 143
ENCODING 143
SWIDTH 2232 0
DWIDTH 31 0
BBX 0 0 0 0
BITMAP
ENDCHAR
STARTCHAR 144
ENCODING 144
SWIDTH 2232 0
DWIDTH 31 0
BBX 0 0 0 0
BITMAP
ENDCHAR
STARTCHAR 145
ENCODING 145
SWIDTH 2232 0
DWIDTH 31 0
BBX 0 0 0 0
BITMAP
ENDCHAR
STARTCHAR 146
ENCODING 146
SWIDTH 2232 0
DWIDTH 31 0
BBX 0 0 0 0
BITMAP
ENDCHAR
STARTCHAR 147
ENCODING 147
SWIDTH 2232 0
DWIDTH 31 0
BBX 0 0 0 0
BITMAP
ENDCHAR
STARTCHAR 148
ENCODING 148
SWIDTH 2232 0
DWIDTH 31 0
BBX 0 0 0 0
BITMAP
ENDCHAR
STARTCHAR 149
ENCODING 149
SWIDTH 2232 0
DWIDTH 31 0
BBX 0 0 0 0
BITMAP
ENDCHAR
STARTCHAR 150
ENCODING 150
SWIDTH 2232 0
DWIDTH 31 0
BBX 0 0 0 0
BITMAP
ENDCHAR
STARTCHAR 151
ENCODING 151
SWIDTH 2232 0
DWIDTH 31 0
BBX 0 0 0 0
BITMAP
ENDCHAR
STARTCHAR 152
ENCODING 152
SWIDTH 2232 0
DWIDTH 31 0
BBX 0 0 0 0
BITMAP
ENDCHAR
STARTCHAR 153
ENCODING 153
SWIDTH 2232 0
DWIDTH 31 0
BBX 0 0 0 0
BITMAP
ENDCHAR
STARTCHAR 154
ENCODING 154
SWIDTH 2232 0
DWIDTH 31 0
BBX 0 0 0 0
BITMAP
ENDCHAR
STARTCHAR 155
ENCODING 155
SWIDTH 2232 0
DWIDTH 31 0
BBX 0 0 0 0
BITMAP
ENDCHAR
STARTCHAR 156
ENCODING 156
SWIDTH 2232 0
DWIDTH 31 0
BBX 0 0 0 0
BITMAP
ENDCHAR
STARTCHAR 157
ENCODING 157
SWIDTH 2232 0
DWIDTH 31 0
BBX 0 0 0 0
BITMAP
ENDCHAR
STARTCHAR 158
ENCODING 158
SWIDTH 2232 0
DWIDTH 31 0
BBX 0 0 0 0
BITMAP
ENDCHAR
STARTCHAR 159
ENCODING 159
SWIDTH 2232 0
DWIDTH 31 0
BBX 0 0 0 0
BITMAP
ENDCHAR
STARTCHAR 160
ENCODING 160
SWIDTH 2232 0
DWIDTH 31 0
BBX 0 0 0 0
BITMAP
ENDCHAR
STARTCHAR 161
ENCODING 161
SWIDTH 2232 0
DWIDTH 31 0
BBX 0 0 0 0
BITMAP
ENDCHAR
STARTCHAR 162
ENCODING 162
SWIDTH 2232 0
DWIDTH 31 0
BBX 0 0 0 0
BITMAP
ENDCHAR
STARTCHAR 163
ENCODING 163
SWIDTH 2232 0
DWIDTH 31 0
BBX 0 0 0 0
BITMAP
ENDCHAR
STARTCHAR 164
ENCODING 164
SWIDTH 2232 0
DWIDTH 31 0
BBX 0 0 0 0
BITMAP
ENDCHAR
STARTCHAR 165
ENCODING 165
SWIDTH 2232 0
DWIDTH 31 0
BBX 0 0 0 0
BITMAP
ENDCHAR
STARTCHAR 166
ENCODING 166
SWIDTH 2232 0
DWIDTH 31 0
BBX 0 0 0 0
BITMAP
ENDCHAR
STARTCHAR 167
ENCODING 167
SWIDTH 2232 0
DWIDTH 31 0
BBX 0 0 0 0
BITMAP
ENDCHAR
STARTCHAR 168
ENCODING 168
SWIDTH 2232 0
DWIDTH 31 0
BBX 0 0 0 0
BITMAP
ENDCHAR
STARTCHAR 169
ENCODING 169
SWIDTH 2232 0
DWIDTH 31 0
BBX 0 0 0 0
BITMAP
ENDCHAR
STARTCHAR 170
ENCODING 170
SWIDTH 2232 0
DWIDTH 31 0
BBX 0 0 0 0
BITMAP
ENDCHAR
STARTCHAR 171
ENCODING 171
SWIDTH 2232 0
DWIDTH 31 0
BBX 0 0 0 0
BITMAP
ENDCHAR
STARTCHAR 172
ENCODING 172
SWIDTH 2232 0
DWIDTH 31 0
BBX 0 0 0 0
BITMAP
ENDCHAR
STARTCHAR 173
ENCODING 173
SWIDTH 2232 0
DWIDTH 31 0
BBX 0 0 0 0
BITMAP
ENDCHAR
STARTCHAR 174
ENCODING 174
SWIDTH 2232 0
DWIDTH 31 0
BBX 0 0 0 0
BITMAP
ENDCHAR
STARTCHAR 175
ENCODING 175
SWIDTH 2232 0
DWIDTH 31 0
BBX 0 0 0 0
BITMAP
ENDCHAR
STARTCHAR 176
ENCODING 176
SWIDTH 2232 0
DWIDTH 31 0
BBX 0 0 0 0
BITMAP
ENDCHAR
STARTCHAR 177
ENCODING 177
SWIDTH 2232 0
DWIDTH 31 0
BBX 0 0 0 0
BITMAP
ENDCHAR
STARTCHAR 178
ENCODING 178
SWIDTH 2232 0
DWIDTH 31 0
BBX 0 0 0 0
BITMAP
ENDCHAR
STARTCHAR 179
ENCODING 179
SWIDTH 2232 0
DWIDTH 31 0
BBX 0 0 0 0
BITMAP
ENDCHAR
STARTCHAR 180
ENCODING 180
SWIDTH 2232 0
DWIDTH 31 0
BBX 0 0 0 0
BITMAP
ENDCHAR
STARTCHAR 181
ENCODING 181
SWIDTH 2232 0
DWIDTH 31 0
BBX 0 0 0 0
BITMAP
ENDCHAR
STARTCHAR 182
ENCODING 182
SWIDTH 2232 0
DWIDTH 31 0
BBX 0 0 0 0
BITMAP
ENDCHAR
STARTCHAR 183
ENCODING 183
SWIDTH 2232 0
DWIDTH 31 0
BBX 0 0 0 0
BITMAP
ENDCHAR
STARTCHAR 184
ENCODING 184
SWIDTH 2232 0
DWIDTH 31 0
BBX 0 0 0 0
BITMAP
ENDCHAR
STARTCHAR 185
ENCODING 185
SWIDTH 2232 0
DWIDTH 31 0
BBX 0 0 0 0
BITMAP
ENDCHAR
STARTCHAR 186
ENCODING 186
SWIDTH 2232 0
DWIDTH 31 0
BBX 0 0 0 0
BITMAP
ENDCHAR
STARTCHAR 187
ENCODING 187
SWIDTH 2232 0
DWIDTH 31 0
BBX 0 0 0 0
BITMAP
ENDCHAR
STARTCHAR 188
ENCODING 188
SWIDTH 2232 0
DWIDTH 31 0
BBX 0 0 0 0
BITMAP
ENDCHAR
STARTCHAR 189
ENCODING 189
SWIDTH 2232 0
DWIDTH 31 0
BBX 0 0 0 0
BITMAP
ENDCHAR
STARTCHAR 190
ENCODING 190
SWIDTH 2232 0
DWIDTH 31 0
BBX 0 0 0 0
BITMAP
ENDCHAR
STARTCHAR 191
ENCODING 191
SWIDTH 2232 0
DWIDTH 31 0
BBX 0 0 0 0
BITMAP
ENDCHAR
STARTCHAR 192
ENCODING 192
SWIDTH 2232 0
DWIDTH 31 0
BBX 0 0 0 0
BITMAP
ENDCHAR
STARTCHAR 193
ENCODING 193
SWIDTH 2232 0
DWIDTH 31 0
BBX 0 0 0 0
BITMAP
ENDCHAR
STARTCHAR 194
ENCODING 194
SWIDTH 2232 0
DWIDTH 31 0
BBX 0 0 0 0
BITMAP
ENDCHAR
STARTCHAR 195
ENCODING 195
SWIDTH 2232 0
DWIDTH 31 0
BBX 0 0 0 0
BITMAP
ENDCHAR
STARTCHAR 196
ENCODING 196
SWIDTH 2232 0
DWIDTH 31 0
BBX 0 0 0 0
BITMAP
ENDCHAR
STARTCHAR 197
ENCODING 197
SWIDTH 2232 0
DWIDTH 31 0
BBX 0 0 0 0
BITMAP
ENDCHAR
STARTCHAR 198
ENCODING 198
SWIDTH 2232 0
DWIDTH 31 0
BBX 0 0 0 0
BITMAP
ENDCHAR
STARTCHAR 199
ENCODING 199
SWIDTH 2232 0
DWIDTH 31 0
BBX 0 0 0 0
BITMAP
ENDCHAR
STARTCHAR 200
ENCODING 200
SWIDTH 2232 0
DWIDTH 31 0
BBX 0 0 0 0
BITMAP
ENDCHAR
STARTCHAR 201
ENCODING 201
SWIDTH 2232 0
DWIDTH 31 0
BBX 0 0 0 0
BITMAP
ENDCHAR
STARTCHAR 202
ENCODING 202
SWIDTH 2232 0
DWIDTH 31 0
BBX 0 0 0 0
BITMAP
ENDCHAR
STARTCHAR 203
ENCODING 203
SWIDTH 2232 0
DWIDTH 31 0
BBX 0 0 0 0
BITMAP
ENDCHAR
STARTCHAR 204
ENCODING 204
SWIDTH 2232 0
DWIDTH 31 0
BBX 0 0 0 0
BITMAP
ENDCHAR
STARTCHAR 205
ENCODING 205
SWIDTH 2232 0
DWIDTH 31 0
BBX 0 0 0 0
BITMAP
ENDCHAR
STARTCHAR 206
ENCODING 206
SWIDTH 2232 0
DWIDTH 31 0
BBX 0 0 0 0
BITMAP
ENDCHAR
STARTCHAR 207
ENCODING 207
SWIDTH 2232 0
DWIDTH 31 0
BBX 0 0 0 0
BITMAP
ENDCHAR
STARTCHAR 208
ENCODING 208
SWIDTH 2232 0
DWIDTH 31 0
BBX 0 0 0 0
BITMAP
ENDCHAR
STARTCHAR 209
ENCODING 209
SWIDTH 2232 0
DWIDTH 31 0
BBX 0 0 0 0
BITMAP
ENDCHAR
STARTCHAR 210
ENCODING 210
SWIDTH 2232 0
DWIDTH 31 0
BBX 0 0 0 0
BITMAP
ENDCHAR
STARTCHAR 211
ENCODING 211
SWIDTH 2232 0
DWIDTH 31 0
BBX 0 0 0 0
BITMAP
ENDCHAR
STARTCHAR 212
ENCODING 212
SWIDTH 2232 0
DWIDTH 31 0
BBX 0 0 0 0
BITMAP
ENDCHAR
STARTCHAR 213
ENCODING 213
SWIDTH 2232 0
DWIDTH 31 0
BBX 0 0 0 0
BITMAP
ENDCHAR
STARTCHAR 214
ENCODING 214
SWIDTH 2232 0
DWIDTH 31 0
BBX 0 0 0 0
BITMAP
ENDCHAR
STARTCHAR 215
ENCODING 215
SWIDTH 2232 0
DWIDTH 31 0
BBX 0 0 0 0
BITMAP
ENDCHAR
STARTCHAR 216
ENCODING 216
SWIDTH 2232 0
DWIDTH 31 0
BBX 0 0 0 0
BITMAP
ENDCHAR
STARTCHAR 217
ENCODING 217
SWIDTH 2232 0
DWIDTH 31 0
BBX 0 0 0 0
BITMAP
ENDCHAR
STARTCHAR 218
ENCODING 218
SWIDTH 2232 0
DWIDTH 31 0
BBX 0 0 0 0
BITMAP
ENDCHAR
STARTCHAR 219
ENCODING 219
SWIDTH 2232 0
DWIDTH 31 0
BBX 0 0 0 0
BITMAP
ENDCHAR
STARTCHAR 220
ENCODING 220
SWIDTH 2232 0
DWIDTH 31 0
BBX 0 0 0 0
BITMAP
ENDCHAR
STARTCHAR 221
ENCODING 221
SWIDTH 2232 0
DWIDTH 31 0
BBX 0 0 0 0
BITMAP
ENDCHAR
STARTCHAR 222
ENCODING 222
SWIDTH 2232 0
DWIDTH 31 0
BBX 0 0 0 0
BITMAP
ENDCHAR
STARTCHAR 223
ENCODING 223
SWIDTH 2232 0
DWIDTH 31 0
BBX 0 0 0 0
BITMAP
ENDCHAR
STARTCHAR 224
ENCODING 224
SWIDTH 2232 0
DWIDTH 31 0
BBX 0 0 0 0
BITMAP
ENDCHAR
STARTCHAR 225
ENCODING 225
SWIDTH 2232 0
DWIDTH 31 0
BBX 0 0 0 0
BITMAP
ENDCHAR
STARTCHAR 226
ENCODING 226
SWIDTH 2232 0
DWIDTH 31 0
BBX 0 0 0 0
BITMAP
ENDCHAR
STARTCHAR 227
ENCODING 227
SWIDTH 2232 0
DWIDTH 31 0
BBX 0 0 0 0
BITMAP
ENDCHAR
STARTCHAR 228
ENCODING 228
SWIDTH 2232 0
DWIDTH 31 0
BBX 0 0 0 0
BITMAP
ENDCHAR
STARTCHAR 229
ENCODING 229
SWIDTH 2232 0
DWIDTH 31 0
BBX 0 0 0 0
BITMAP
ENDCHAR
STARTCHAR 230
ENCODING 230
SWIDTH 2232 0
DWIDTH 31 0
BBX 0 0 0 0
BITMAP
ENDCHAR
STARTCHAR 231
ENCODING 231
SWIDTH 2232 0
DWIDTH 31 0
BBX 0 0 0 0
BITMAP
ENDCHAR
STARTCHAR 232
ENCODING 232
SWIDTH 2232 0
DWIDTH 31 0
BBX 0 0 0 0
BITMAP
ENDCHAR
STARTCHAR 233
ENCODING 233
SWIDTH 2232 0
DWIDTH 31 0
BBX 0 0 0 0
BITMAP
ENDCHAR
STARTCHAR 234
ENCODING 234
SWIDTH 2232 0
DWIDTH 31 0
BBX 0 0 0 0
BITMAP
ENDCHAR
STARTCHAR 235
ENCODING 235
SWIDTH 2232 0
DWIDTH 31 0
BBX 0 0 0 0
BITMAP
ENDCHAR
STARTCHAR 236
ENCODING 236
SWIDTH 2232 0
DWIDTH 31 0
BBX 0 0 0 0
BITMAP
ENDCHAR
STARTCHAR 237
ENCODING 237
SWIDTH 2232 0
DWIDTH 31 0
BBX 0 0 0 0
BITMAP
ENDCHAR
STARTCHAR 238
ENCODING 238
SWIDTH 2232 0
DWIDTH 31 0
BBX 0 0 0 0
BITMAP
ENDCHAR
STARTCHAR 239
ENCODING 239
SWIDTH 2232 0
DWIDTH 31 0
BBX 0 0 0 0
BITMAP
ENDCHAR
STARTCHAR 240
ENCODING 240
SWIDTH 2232 0
DWIDTH 31 0
BBX 0 0 0 0
BITMAP
ENDCHAR
STARTCHAR 241
ENCODING 241
SWIDTH 2232 0
DWIDTH 31 0
BBX 0 0 0 0
BITMAP
ENDCHAR
STARTCHAR 242
ENCODING 242
SWIDTH 2232 0
DWIDTH 31 0
BBX 0 0 0 0
BITMAP
ENDCHAR
STARTCHAR 243
ENCODING 243
SWIDTH 2232 0
DWIDTH 31 0
BBX 0 0 0 0
BITMAP
ENDCHAR
STARTCHAR 244
ENCODING 244
SWIDTH 2232 0
DWIDTH 31 0
BBX 0 0 0 0
BITMAP
ENDCHAR
STARTCHAR 245
ENCODING 245
SWIDTH 2232 0
DWIDTH 31 0
BBX 0 0 0 0
BITMAP
ENDCHAR
STARTCHAR 246
ENCODING 246
SWIDTH 2232 0
DWIDTH 31 0
BBX 0 0 0 0
BITMAP
ENDCHAR
STARTCHAR 247
ENCODING 247
SWIDTH 2232 0
DWIDTH 31 0
BBX 0 0 0 0
BITMAP
ENDCHAR
STARTCHAR 248
ENCODING 248
SWIDTH 2232 0
DWIDTH 31 0
BBX 0 0 0 0
BITMAP
ENDCHAR
STARTCHAR 249
ENCODING 249
SWIDTH 2232 0
DWIDTH 31 0
BBX 0 0 0 0
BITMAP
ENDCHAR
STARTCHAR 250
ENCODING 250
SWIDTH 2232 0
DWIDTH 31 0
BBX 0 0 0 0
BITMAP
ENDCHAR
STARTCHAR 251
ENCODING 251
SWIDTH 2232 0
DWIDTH 31 0
BBX 0 0 0 0
BITMAP
ENDCHAR
STARTCHAR 252
ENCODING 252
SWIDTH 2232 0
DWIDTH 31 0
BBX 0 0 0 0
BITMAP
ENDCHAR
STARTCHAR 253
ENCODING 253
SWIDTH 2232 0
DWIDTH 31 0
BBX 0 0 0 0
BITMAP
ENDCHAR
STARTCHAR 254
ENCODING 254
SWIDTH 2232 0
DWIDTH 31 0
BBX 0 0 0 0
BITMAP
ENDCHAR
STARTCHAR 255
ENCODING 255
SWIDTH 2232 0
DWIDTH 31 0
BBX 0 0 0 0
BITMAP
ENDCHAR
ENDFONT
